STARTFONT 2.1
FONT -FontForge-Butcherman-Book-R-Normal--10-100-72-72-P-54-ISO10646-1
SIZE 10 72 72
FONTBOUNDINGBOX 15 20 -1 -7
COMMENT "Generated by fontforge, http://fontforge.sourceforge.net"
COMMENT "Copyright (c) 2011, Typomondo, with Reserved Font Name  "Butcherman"."
STARTPROPERTIES 40
FOUNDRY "FontForge"
FAMILY_NAME "Butcherman"
WEIGHT_NAME "Book"
SLANT "R"
SETWIDTH_NAME "Normal"
ADD_STYLE_NAME ""
PIXEL_SIZE 10
POINT_SIZE 100
RESOLUTION_X 72
RESOLUTION_Y 72
SPACING "P"
AVERAGE_WIDTH 54
CHARSET_REGISTRY "ISO10646"
CHARSET_ENCODING "1"
FONTNAME_REGISTRY ""
CHARSET_COLLECTIONS "ISO8859-2 ISO8859-9 ISO8859-4 ISO10646-1"
FONT_NAME "Butcherman-Regular"
FACE_NAME "Butcherman Regular"
COPYRIGHT "Copyright (c) 2011, Typomondo, with Reserved Font Name  "Butcherman"."
FONT_VERSION "001.004"
FONT_ASCENT 8
FONT_DESCENT 2
UNDERLINE_POSITION -1
UNDERLINE_THICKNESS 1
X_HEIGHT 6
CAP_HEIGHT 6
DEFAULT_CHAR 3
RAW_ASCENT 799
RAW_DESCENT 200
NORM_SPACE 2
RELATIVE_WEIGHT 40
RELATIVE_SETWIDTH 50
SUPERSCRIPT_X 0
SUPERSCRIPT_Y 3
SUPERSCRIPT_SIZE 5
SUBSCRIPT_X 0
SUBSCRIPT_Y 0
SUBSCRIPT_SIZE 5
AVG_LOWERCASE_WIDTH 57
AVG_UPPERCASE_WIDTH 55
ENDPROPERTIES
CHARS 331
STARTCHAR NULL.dup1
ENCODING 0
SWIDTH 161 0
DWIDTH 2 0
BBX 1 1 0 0
BITMAP
00
ENDCHAR
STARTCHAR CR
ENCODING 13
SWIDTH 161 0
DWIDTH 2 0
BBX 1 1 0 0
BITMAP
00
ENDCHAR
STARTCHAR space
ENCODING 32
SWIDTH 161 0
DWIDTH 2 0
BBX 1 1 0 0
BITMAP
00
ENDCHAR
STARTCHAR exclam
ENCODING 33
SWIDTH 350 0
DWIDTH 4 0
BBX 3 12 0 0
BITMAP
E0
60
E0
60
60
40
40
20
A0
60
60
40
ENDCHAR
STARTCHAR quotedbl
ENCODING 34
SWIDTH 541 0
DWIDTH 5 0
BBX 5 3 0 4
BITMAP
D8
58
48
ENDCHAR
STARTCHAR numbersign
ENCODING 35
SWIDTH 583 0
DWIDTH 6 0
BBX 6 9 0 -1
BITMAP
28
28
7C
78
50
50
F8
90
A0
ENDCHAR
STARTCHAR dollar
ENCODING 36
SWIDTH 534 0
DWIDTH 5 0
BBX 5 13 0 -3
BITMAP
20
20
20
78
F8
F8
D8
70
58
70
20
20
20
ENDCHAR
STARTCHAR percent
ENCODING 37
SWIDTH 828 0
DWIDTH 8 0
BBX 8 9 0 -1
BITMAP
04
E8
E8
AB
4B
13
13
10
10
ENDCHAR
STARTCHAR ampersand
ENCODING 38
SWIDTH 522 0
DWIDTH 5 0
BBX 5 5 0 1
BITMAP
20
F8
F8
20
20
ENDCHAR
STARTCHAR quotesingle
ENCODING 39
SWIDTH 300 0
DWIDTH 3 0
BBX 2 3 0 4
BITMAP
C0
40
40
ENDCHAR
STARTCHAR parenleft
ENCODING 40
SWIDTH 372 0
DWIDTH 4 0
BBX 4 10 0 -1
BITMAP
10
20
60
60
C0
C0
C0
40
60
20
ENDCHAR
STARTCHAR parenright
ENCODING 41
SWIDTH 338 0
DWIDTH 3 0
BBX 3 9 0 -1
BITMAP
C0
E0
E0
60
60
60
60
40
C0
ENDCHAR
STARTCHAR asterisk
ENCODING 42
SWIDTH 513 0
DWIDTH 5 0
BBX 5 6 0 2
BITMAP
50
50
B0
F8
30
50
ENDCHAR
STARTCHAR plus
ENCODING 43
SWIDTH 458 0
DWIDTH 5 0
BBX 4 4 0 2
BITMAP
20
F0
F0
20
ENDCHAR
STARTCHAR comma
ENCODING 44
SWIDTH 361 0
DWIDTH 4 0
BBX 3 4 0 -1
BITMAP
60
E0
60
20
ENDCHAR
STARTCHAR hyphen
ENCODING 45
SWIDTH 478 0
DWIDTH 5 0
BBX 3 2 1 3
BITMAP
E0
E0
ENDCHAR
STARTCHAR period
ENCODING 46
SWIDTH 374 0
DWIDTH 4 0
BBX 3 4 0 0
BITMAP
A0
60
60
C0
ENDCHAR
STARTCHAR slash
ENCODING 47
SWIDTH 291 0
DWIDTH 3 0
BBX 3 9 0 -1
BITMAP
20
20
40
40
40
40
80
80
80
ENDCHAR
STARTCHAR zero
ENCODING 48
SWIDTH 528 0
DWIDTH 5 0
BBX 5 8 0 -1
BITMAP
70
F8
78
58
58
50
70
20
ENDCHAR
STARTCHAR one
ENCODING 49
SWIDTH 366 0
DWIDTH 4 0
BBX 3 7 0 0
BITMAP
E0
60
60
60
60
60
20
ENDCHAR
STARTCHAR two
ENCODING 50
SWIDTH 575 0
DWIDTH 6 0
BBX 6 8 0 -1
BITMAP
78
78
78
58
10
30
7C
F8
ENDCHAR
STARTCHAR three
ENCODING 51
SWIDTH 517 0
DWIDTH 5 0
BBX 5 8 0 -1
BITMAP
70
F8
78
D8
30
18
70
20
ENDCHAR
STARTCHAR four
ENCODING 52
SWIDTH 466 0
DWIDTH 5 0
BBX 5 9 0 -2
BITMAP
70
60
60
60
50
58
F0
10
10
ENDCHAR
STARTCHAR five
ENCODING 53
SWIDTH 583 0
DWIDTH 6 0
BBX 6 8 0 -1
BITMAP
7C
F8
78
C0
70
18
70
20
ENDCHAR
STARTCHAR six
ENCODING 54
SWIDTH 582 0
DWIDTH 6 0
BBX 6 8 0 -1
BITMAP
78
FC
F8
58
70
68
78
38
ENDCHAR
STARTCHAR seven
ENCODING 55
SWIDTH 624 0
DWIDTH 6 0
BBX 6 8 0 -1
BITMAP
FC
FC
78
08
18
10
30
20
ENDCHAR
STARTCHAR eight
ENCODING 56
SWIDTH 459 0
DWIDTH 5 0
BBX 4 8 0 -1
BITMAP
F0
F0
70
50
60
50
70
40
ENDCHAR
STARTCHAR nine
ENCODING 57
SWIDTH 584 0
DWIDTH 6 0
BBX 5 8 0 -1
BITMAP
78
78
F8
78
78
58
70
20
ENDCHAR
STARTCHAR colon
ENCODING 58
SWIDTH 386 0
DWIDTH 4 0
BBX 3 9 0 0
BITMAP
C0
60
60
40
00
A0
60
60
40
ENDCHAR
STARTCHAR semicolon
ENCODING 59
SWIDTH 375 0
DWIDTH 4 0
BBX 3 11 0 -2
BITMAP
A0
60
60
40
00
00
60
60
E0
20
20
ENDCHAR
STARTCHAR less
ENCODING 60
SWIDTH 459 0
DWIDTH 5 0
BBX 4 5 0 1
BITMAP
30
60
C0
60
30
ENDCHAR
STARTCHAR equal
ENCODING 61
SWIDTH 485 0
DWIDTH 5 0
BBX 3 3 1 3
BITMAP
E0
00
E0
ENDCHAR
STARTCHAR greater
ENCODING 62
SWIDTH 432 0
DWIDTH 4 0
BBX 4 5 0 1
BITMAP
E0
60
30
60
E0
ENDCHAR
STARTCHAR question
ENCODING 63
SWIDTH 577 0
DWIDTH 6 0
BBX 4 9 1 -1
BITMAP
E0
F0
F0
B0
20
60
20
60
60
ENDCHAR
STARTCHAR at
ENCODING 64
SWIDTH 930 0
DWIDTH 9 0
BBX 9 11 0 -2
BITMAP
0800
3E00
5D00
5D00
9D80
9580
9C80
5680
5F00
6000
3C00
ENDCHAR
STARTCHAR A
ENCODING 65
SWIDTH 494 0
DWIDTH 5 0
BBX 5 9 0 -2
BITMAP
F8
70
70
70
50
70
70
60
20
ENDCHAR
STARTCHAR B
ENCODING 66
SWIDTH 517 0
DWIDTH 5 0
BBX 5 7 0 0
BITMAP
F8
78
78
70
70
70
70
ENDCHAR
STARTCHAR C
ENCODING 67
SWIDTH 504 0
DWIDTH 5 0
BBX 5 8 0 -1
BITMAP
70
F8
F8
D8
40
50
70
20
ENDCHAR
STARTCHAR D
ENCODING 68
SWIDTH 522 0
DWIDTH 5 0
BBX 5 9 0 -2
BITMAP
F8
78
78
68
68
70
70
60
20
ENDCHAR
STARTCHAR E
ENCODING 69
SWIDTH 570 0
DWIDTH 6 0
BBX 5 8 0 -1
BITMAP
F8
78
70
60
70
60
70
30
ENDCHAR
STARTCHAR F
ENCODING 70
SWIDTH 559 0
DWIDTH 6 0
BBX 5 8 0 -1
BITMAP
F8
78
78
60
70
20
60
60
ENDCHAR
STARTCHAR G
ENCODING 71
SWIDTH 499 0
DWIDTH 5 0
BBX 5 8 0 -1
BITMAP
70
F8
F8
58
50
58
70
50
ENDCHAR
STARTCHAR H
ENCODING 72
SWIDTH 726 0
DWIDTH 7 0
BBX 7 9 0 -2
BITMAP
EE
6C
6C
6C
7C
28
28
48
10
ENDCHAR
STARTCHAR I
ENCODING 73
SWIDTH 401 0
DWIDTH 4 0
BBX 4 8 0 -1
BITMAP
F0
60
60
60
60
60
20
20
ENDCHAR
STARTCHAR J
ENCODING 74
SWIDTH 455 0
DWIDTH 5 0
BBX 4 7 0 0
BITMAP
30
30
30
20
60
A0
E0
ENDCHAR
STARTCHAR K
ENCODING 75
SWIDTH 580 0
DWIDTH 6 0
BBX 6 8 0 -1
BITMAP
FC
70
70
70
30
30
38
08
ENDCHAR
STARTCHAR L
ENCODING 76
SWIDTH 416 0
DWIDTH 4 0
BBX 5 8 0 -1
BITMAP
F0
60
60
60
60
68
70
30
ENDCHAR
STARTCHAR M
ENCODING 77
SWIDTH 740 0
DWIDTH 7 0
BBX 7 8 0 0
BITMAP
34
EE
7C
7C
7C
74
34
3C
ENDCHAR
STARTCHAR N
ENCODING 78
SWIDTH 610 0
DWIDTH 6 0
BBX 6 9 0 -2
BITMAP
FC
68
78
78
78
78
38
50
70
ENDCHAR
STARTCHAR O
ENCODING 79
SWIDTH 504 0
DWIDTH 5 0
BBX 5 8 0 -1
BITMAP
78
F8
F8
58
58
50
70
30
ENDCHAR
STARTCHAR P
ENCODING 80
SWIDTH 545 0
DWIDTH 5 0
BBX 5 8 0 -1
BITMAP
F8
78
78
68
38
20
20
20
ENDCHAR
STARTCHAR Q
ENCODING 81
SWIDTH 520 0
DWIDTH 5 0
BBX 5 8 0 -1
BITMAP
78
F8
F8
D8
58
78
38
08
ENDCHAR
STARTCHAR R
ENCODING 82
SWIDTH 599 0
DWIDTH 6 0
BBX 6 8 0 -1
BITMAP
F8
7C
7C
6C
38
28
28
28
ENDCHAR
STARTCHAR S
ENCODING 83
SWIDTH 504 0
DWIDTH 5 0
BBX 5 8 0 -1
BITMAP
78
F8
F8
C8
70
D0
70
20
ENDCHAR
STARTCHAR T
ENCODING 84
SWIDTH 622 0
DWIDTH 6 0
BBX 6 8 0 -1
BITMAP
FC
78
78
30
10
30
10
10
ENDCHAR
STARTCHAR U
ENCODING 85
SWIDTH 637 0
DWIDTH 6 0
BBX 6 8 0 -1
BITMAP
EC
68
68
68
78
78
78
10
ENDCHAR
STARTCHAR V
ENCODING 86
SWIDTH 570 0
DWIDTH 6 0
BBX 6 8 0 -1
BITMAP
FC
58
78
70
70
70
30
20
ENDCHAR
STARTCHAR W
ENCODING 87
SWIDTH 777 0
DWIDTH 8 0
BBX 8 8 0 0
BITMAP
14
FF
7C
3C
3C
3C
18
18
ENDCHAR
STARTCHAR X
ENCODING 88
SWIDTH 587 0
DWIDTH 6 0
BBX 6 8 0 -1
BITMAP
FC
30
30
30
30
30
30
48
ENDCHAR
STARTCHAR Y
ENCODING 89
SWIDTH 688 0
DWIDTH 7 0
BBX 7 7 0 0
BITMAP
EE
3C
18
18
18
18
08
ENDCHAR
STARTCHAR Z
ENCODING 90
SWIDTH 695 0
DWIDTH 7 0
BBX 7 7 0 0
BITMAP
FE
7C
7C
58
30
20
38
ENDCHAR
STARTCHAR bracketleft
ENCODING 91
SWIDTH 410 0
DWIDTH 4 0
BBX 3 9 1 0
BITMAP
E0
E0
A0
80
80
80
80
80
E0
ENDCHAR
STARTCHAR backslash
ENCODING 92
SWIDTH 292 0
DWIDTH 3 0
BBX 3 9 0 -1
BITMAP
80
80
80
40
40
40
20
20
20
ENDCHAR
STARTCHAR bracketright
ENCODING 93
SWIDTH 407 0
DWIDTH 4 0
BBX 4 9 0 0
BITMAP
60
E0
20
20
20
30
30
20
E0
ENDCHAR
STARTCHAR asciicircum
ENCODING 94
SWIDTH 523 0
DWIDTH 5 0
BBX 5 4 0 7
BITMAP
30
70
58
C8
ENDCHAR
STARTCHAR underscore
ENCODING 95
SWIDTH 452 0
DWIDTH 5 0
BBX 4 1 0 0
BITMAP
F0
ENDCHAR
STARTCHAR grave
ENCODING 96
SWIDTH 444 0
DWIDTH 4 0
BBX 4 2 0 8
BITMAP
40
F0
ENDCHAR
STARTCHAR a
ENCODING 97
SWIDTH 479 0
DWIDTH 5 0
BBX 5 8 0 -1
BITMAP
F8
70
70
70
50
70
50
50
ENDCHAR
STARTCHAR b
ENCODING 98
SWIDTH 610 0
DWIDTH 6 0
BBX 6 8 0 -1
BITMAP
FC
7C
7C
68
38
28
38
28
ENDCHAR
STARTCHAR c
ENCODING 99
SWIDTH 534 0
DWIDTH 5 0
BBX 5 8 0 -1
BITMAP
78
F8
F8
78
40
78
70
30
ENDCHAR
STARTCHAR d
ENCODING 100
SWIDTH 573 0
DWIDTH 6 0
BBX 6 8 0 -1
BITMAP
F8
7C
7C
68
28
28
38
30
ENDCHAR
STARTCHAR e
ENCODING 101
SWIDTH 632 0
DWIDTH 6 0
BBX 6 8 0 -1
BITMAP
FC
78
78
60
78
28
38
28
ENDCHAR
STARTCHAR f
ENCODING 102
SWIDTH 559 0
DWIDTH 6 0
BBX 5 8 0 -1
BITMAP
F8
78
78
60
70
60
60
60
ENDCHAR
STARTCHAR g
ENCODING 103
SWIDTH 546 0
DWIDTH 5 0
BBX 5 8 0 -1
BITMAP
78
F8
F8
58
50
58
78
30
ENDCHAR
STARTCHAR h
ENCODING 104
SWIDTH 730 0
DWIDTH 7 0
BBX 7 8 0 -1
BITMAP
EE
6C
6C
6C
3C
28
28
48
ENDCHAR
STARTCHAR i
ENCODING 105
SWIDTH 412 0
DWIDTH 4 0
BBX 4 7 0 0
BITMAP
F0
60
60
60
60
20
20
ENDCHAR
STARTCHAR j
ENCODING 106
SWIDTH 458 0
DWIDTH 5 0
BBX 4 7 0 0
BITMAP
70
30
30
30
70
A0
E0
ENDCHAR
STARTCHAR k
ENCODING 107
SWIDTH 636 0
DWIDTH 6 0
BBX 6 7 0 0
BITMAP
EC
78
70
30
30
30
28
ENDCHAR
STARTCHAR l
ENCODING 108
SWIDTH 438 0
DWIDTH 4 0
BBX 5 8 0 -1
BITMAP
F0
60
60
60
60
28
30
50
ENDCHAR
STARTCHAR m
ENCODING 109
SWIDTH 770 0
DWIDTH 8 0
BBX 8 9 0 -1
BITMAP
19
EE
7C
7C
7C
7C
7C
38
40
ENDCHAR
STARTCHAR n
ENCODING 110
SWIDTH 664 0
DWIDTH 7 0
BBX 7 8 0 -1
BITMAP
EE
7C
7C
78
78
78
78
78
ENDCHAR
STARTCHAR o
ENCODING 111
SWIDTH 545 0
DWIDTH 5 0
BBX 5 8 0 -1
BITMAP
78
F8
F8
58
58
58
70
10
ENDCHAR
STARTCHAR p
ENCODING 112
SWIDTH 557 0
DWIDTH 6 0
BBX 5 7 0 0
BITMAP
F8
78
78
68
78
30
20
ENDCHAR
STARTCHAR q
ENCODING 113
SWIDTH 562 0
DWIDTH 6 0
BBX 6 8 0 -1
BITMAP
78
F8
F8
E8
68
78
3C
08
ENDCHAR
STARTCHAR r
ENCODING 114
SWIDTH 616 0
DWIDTH 6 0
BBX 6 8 0 -1
BITMAP
FC
7C
7C
6C
38
38
28
48
ENDCHAR
STARTCHAR s
ENCODING 115
SWIDTH 481 0
DWIDTH 5 0
BBX 5 8 0 -1
BITMAP
70
F8
F0
D0
70
30
70
40
ENDCHAR
STARTCHAR t
ENCODING 116
SWIDTH 683 0
DWIDTH 7 0
BBX 6 8 0 -1
BITMAP
FC
7C
7C
50
18
10
18
10
ENDCHAR
STARTCHAR u
ENCODING 117
SWIDTH 708 0
DWIDTH 7 0
BBX 7 7 0 0
BITMAP
EE
6C
6C
6C
6C
2C
38
ENDCHAR
STARTCHAR v
ENCODING 118
SWIDTH 644 0
DWIDTH 6 0
BBX 6 8 0 -1
BITMAP
EC
68
68
28
38
38
10
10
ENDCHAR
STARTCHAR w
ENCODING 119
SWIDTH 704 0
DWIDTH 7 0
BBX 7 7 0 0
BITMAP
D6
74
7C
3C
38
38
18
ENDCHAR
STARTCHAR x
ENCODING 120
SWIDTH 599 0
DWIDTH 6 0
BBX 6 8 0 -1
BITMAP
FC
30
30
30
30
30
30
48
ENDCHAR
STARTCHAR y
ENCODING 121
SWIDTH 604 0
DWIDTH 6 0
BBX 6 8 0 -1
BITMAP
EC
38
30
30
10
10
10
20
ENDCHAR
STARTCHAR z
ENCODING 122
SWIDTH 622 0
DWIDTH 6 0
BBX 6 8 0 -1
BITMAP
FC
78
78
50
30
20
38
08
ENDCHAR
STARTCHAR braceleft
ENCODING 123
SWIDTH 372 0
DWIDTH 4 0
BBX 4 10 0 -1
BITMAP
10
20
60
60
C0
C0
C0
40
60
20
ENDCHAR
STARTCHAR bar
ENCODING 124
SWIDTH 208 0
DWIDTH 2 0
BBX 1 9 1 -1
BITMAP
80
80
80
80
80
80
80
80
80
ENDCHAR
STARTCHAR braceright
ENCODING 125
SWIDTH 338 0
DWIDTH 3 0
BBX 3 9 0 -1
BITMAP
C0
E0
E0
60
60
60
60
40
C0
ENDCHAR
STARTCHAR asciitilde
ENCODING 126
SWIDTH 535 0
DWIDTH 5 0
BBX 5 2 0 6
BITMAP
50
F8
ENDCHAR
STARTCHAR exclamdown
ENCODING 161
SWIDTH 347 0
DWIDTH 3 0
BBX 3 12 0 0
BITMAP
60
60
E0
00
40
60
60
60
60
60
E0
40
ENDCHAR
STARTCHAR cent
ENCODING 162
SWIDTH 552 0
DWIDTH 6 0
BBX 5 14 0 -4
BITMAP
20
20
20
78
F8
F8
78
40
78
70
30
20
20
20
ENDCHAR
STARTCHAR sterling
ENCODING 163
SWIDTH 589 0
DWIDTH 6 0
BBX 6 8 0 -1
BITMAP
78
F8
7C
58
E0
68
78
30
ENDCHAR
STARTCHAR yen
ENCODING 165
SWIDTH 692 0
DWIDTH 7 0
BBX 7 8 0 1
BITMAP
AA
6C
38
3A
5C
7E
18
18
ENDCHAR
STARTCHAR brokenbar
ENCODING 166
SWIDTH 201 0
DWIDTH 2 0
BBX 1 9 0 -1
BITMAP
80
80
80
00
00
00
80
80
80
ENDCHAR
STARTCHAR section
ENCODING 167
SWIDTH 477 0
DWIDTH 5 0
BBX 5 10 0 -2
BITMAP
20
78
70
50
70
D0
D0
60
F0
60
ENDCHAR
STARTCHAR dieresis
ENCODING 168
SWIDTH 633 0
DWIDTH 6 0
BBX 5 2 1 8
BITMAP
F8
F8
ENDCHAR
STARTCHAR copyright
ENCODING 169
SWIDTH 783 0
DWIDTH 8 0
BBX 7 9 0 -1
BITMAP
38
5E
7E
BE
BE
B2
5A
5E
38
ENDCHAR
STARTCHAR guillemotleft
ENCODING 171
SWIDTH 759 0
DWIDTH 8 0
BBX 7 5 0 1
BITMAP
36
6C
CC
6C
36
ENDCHAR
STARTCHAR uni00AD
ENCODING 173
SWIDTH 446 0
DWIDTH 4 0
BBX 3 1 1 3
BITMAP
E0
ENDCHAR
STARTCHAR registered
ENCODING 174
SWIDTH 780 0
DWIDTH 8 0
BBX 7 9 0 -1
BITMAP
18
76
7E
BE
9A
9A
56
26
18
ENDCHAR
STARTCHAR macron
ENCODING 175
SWIDTH 446 0
DWIDTH 4 0
BBX 3 1 1 3
BITMAP
E0
ENDCHAR
STARTCHAR acute
ENCODING 180
SWIDTH 439 0
DWIDTH 4 0
BBX 3 2 1 8
BITMAP
40
E0
ENDCHAR
STARTCHAR mu
ENCODING 181
SWIDTH 679 0
DWIDTH 7 0
BBX 7 7 0 0
BITMAP
EE
6C
6C
6C
6C
28
38
ENDCHAR
STARTCHAR paragraph
ENCODING 182
SWIDTH 591 0
DWIDTH 6 0
BBX 6 8 0 -1
BITMAP
FC
F8
F8
68
18
18
18
08
ENDCHAR
STARTCHAR periodcentered
ENCODING 183
SWIDTH 388 0
DWIDTH 4 0
BBX 3 3 0 2
BITMAP
E0
60
60
ENDCHAR
STARTCHAR cedilla
ENCODING 184
SWIDTH 270 0
DWIDTH 3 0
BBX 2 3 0 -3
BITMAP
40
C0
C0
ENDCHAR
STARTCHAR guillemotright
ENCODING 187
SWIDTH 767 0
DWIDTH 8 0
BBX 7 5 0 1
BITMAP
EC
66
36
66
EC
ENDCHAR
STARTCHAR Agrave
ENCODING 192
SWIDTH 494 0
DWIDTH 5 0
BBX 5 12 0 -2
BITMAP
80
E0
00
F8
70
70
70
50
70
70
60
20
ENDCHAR
STARTCHAR Aacute
ENCODING 193
SWIDTH 494 0
DWIDTH 5 0
BBX 6 12 0 -2
BITMAP
08
1C
00
F8
70
70
70
50
70
70
60
20
ENDCHAR
STARTCHAR Acircumflex
ENCODING 194
SWIDTH 494 0
DWIDTH 5 0
BBX 5 13 0 -2
BITMAP
70
50
88
00
F8
70
70
70
50
70
70
60
20
ENDCHAR
STARTCHAR Atilde
ENCODING 195
SWIDTH 494 0
DWIDTH 5 0
BBX 5 12 0 -2
BITMAP
F8
50
00
F8
70
70
70
50
70
70
60
20
ENDCHAR
STARTCHAR Adieresis
ENCODING 196
SWIDTH 494 0
DWIDTH 5 0
BBX 5 12 0 -2
BITMAP
D8
D8
00
F8
70
70
70
50
70
70
60
20
ENDCHAR
STARTCHAR Aring
ENCODING 197
SWIDTH 494 0
DWIDTH 5 0
BBX 5 13 0 -2
BITMAP
20
50
60
00
F8
70
70
70
50
70
70
60
20
ENDCHAR
STARTCHAR AE
ENCODING 198
SWIDTH 733 0
DWIDTH 7 0
BBX 7 9 0 -2
BITMAP
FE
7C
7C
70
5C
70
7C
6C
28
ENDCHAR
STARTCHAR Ccedilla
ENCODING 199
SWIDTH 504 0
DWIDTH 5 0
BBX 5 11 0 -4
BITMAP
70
F8
F8
D8
40
50
70
20
10
18
18
ENDCHAR
STARTCHAR Egrave
ENCODING 200
SWIDTH 570 0
DWIDTH 6 0
BBX 5 11 0 -1
BITMAP
40
E0
00
F8
78
70
60
70
60
70
30
ENDCHAR
STARTCHAR Eacute
ENCODING 201
SWIDTH 570 0
DWIDTH 6 0
BBX 6 11 0 -1
BITMAP
04
1C
00
F8
78
70
60
70
60
70
30
ENDCHAR
STARTCHAR Ecircumflex
ENCODING 202
SWIDTH 570 0
DWIDTH 6 0
BBX 5 12 0 -1
BITMAP
70
58
48
00
F8
78
70
60
70
60
70
30
ENDCHAR
STARTCHAR Edieresis
ENCODING 203
SWIDTH 570 0
DWIDTH 6 0
BBX 5 11 0 -1
BITMAP
D8
D8
00
F8
78
70
60
70
60
70
30
ENDCHAR
STARTCHAR Igrave
ENCODING 204
SWIDTH 401 0
DWIDTH 4 0
BBX 5 11 -1 -1
BITMAP
40
E0
40
38
30
30
30
30
30
10
10
ENDCHAR
STARTCHAR Iacute
ENCODING 205
SWIDTH 401 0
DWIDTH 4 0
BBX 5 11 0 -1
BITMAP
08
38
80
70
60
60
60
60
60
20
20
ENDCHAR
STARTCHAR Icircumflex
ENCODING 206
SWIDTH 401 0
DWIDTH 4 0
BBX 4 12 0 -1
BITMAP
60
F0
90
80
70
60
60
60
60
60
20
20
ENDCHAR
STARTCHAR Idieresis
ENCODING 207
SWIDTH 401 0
DWIDTH 4 0
BBX 4 11 0 -1
BITMAP
F0
B0
80
70
60
60
60
60
60
20
20
ENDCHAR
STARTCHAR Eth
ENCODING 208
SWIDTH 530 0
DWIDTH 5 0
BBX 5 9 0 -2
BITMAP
78
78
78
68
B8
28
38
50
10
ENDCHAR
STARTCHAR Ntilde
ENCODING 209
SWIDTH 610 0
DWIDTH 6 0
BBX 6 12 0 -2
BITMAP
78
68
10
EC
68
78
78
78
78
38
50
70
ENDCHAR
STARTCHAR Ograve
ENCODING 210
SWIDTH 504 0
DWIDTH 5 0
BBX 5 11 0 -1
BITMAP
80
E0
00
78
F8
F8
58
58
50
70
30
ENDCHAR
STARTCHAR Oacute
ENCODING 211
SWIDTH 504 0
DWIDTH 5 0
BBX 6 11 0 -1
BITMAP
08
1C
00
78
F8
F8
58
58
50
70
30
ENDCHAR
STARTCHAR Ocircumflex
ENCODING 212
SWIDTH 504 0
DWIDTH 5 0
BBX 5 12 0 -1
BITMAP
70
50
88
00
78
F8
F8
58
58
50
70
30
ENDCHAR
STARTCHAR Otilde
ENCODING 213
SWIDTH 504 0
DWIDTH 5 0
BBX 5 11 0 -1
BITMAP
F8
50
00
78
F8
F8
58
58
50
70
30
ENDCHAR
STARTCHAR Odieresis
ENCODING 214
SWIDTH 504 0
DWIDTH 5 0
BBX 5 11 0 -1
BITMAP
D8
D8
00
78
F8
F8
58
58
50
70
30
ENDCHAR
STARTCHAR multiply
ENCODING 215
SWIDTH 359 0
DWIDTH 4 0
BBX 4 4 0 2
BITMAP
60
F0
60
F0
ENDCHAR
STARTCHAR Oslash
ENCODING 216
SWIDTH 658 0
DWIDTH 7 0
BBX 7 8 0 -1
BITMAP
7A
7C
78
58
78
78
F8
B0
ENDCHAR
STARTCHAR Ugrave
ENCODING 217
SWIDTH 637 0
DWIDTH 6 0
BBX 6 11 0 -1
BITMAP
40
F0
80
6C
68
68
68
78
78
78
10
ENDCHAR
STARTCHAR Uacute
ENCODING 218
SWIDTH 637 0
DWIDTH 6 0
BBX 7 11 0 -1
BITMAP
04
1E
80
6C
68
68
68
78
78
78
10
ENDCHAR
STARTCHAR Ucircumflex
ENCODING 219
SWIDTH 637 0
DWIDTH 6 0
BBX 6 12 0 -1
BITMAP
30
78
48
80
6C
68
68
68
78
78
78
10
ENDCHAR
STARTCHAR Udieresis
ENCODING 220
SWIDTH 637 0
DWIDTH 6 0
BBX 6 11 0 -1
BITMAP
6C
6C
80
6C
68
68
68
78
78
78
10
ENDCHAR
STARTCHAR Yacute
ENCODING 221
SWIDTH 688 0
DWIDTH 7 0
BBX 7 11 0 0
BITMAP
04
0E
00
00
EE
3C
18
18
18
18
08
ENDCHAR
STARTCHAR Thorn
ENCODING 222
SWIDTH 521 0
DWIDTH 5 0
BBX 5 10 0 -1
BITMAP
E0
E0
F8
78
78
68
70
60
60
60
ENDCHAR
STARTCHAR germandbls
ENCODING 223
SWIDTH 546 0
DWIDTH 5 0
BBX 5 8 0 -1
BITMAP
78
F8
F8
58
50
58
50
50
ENDCHAR
STARTCHAR agrave
ENCODING 224
SWIDTH 479 0
DWIDTH 5 0
BBX 5 11 0 -1
BITMAP
80
E0
88
70
70
70
70
50
70
50
50
ENDCHAR
STARTCHAR aacute
ENCODING 225
SWIDTH 479 0
DWIDTH 5 0
BBX 6 12 0 -1
BITMAP
08
1C
00
88
70
70
70
70
50
70
50
50
ENDCHAR
STARTCHAR acircumflex
ENCODING 226
SWIDTH 479 0
DWIDTH 5 0
BBX 5 12 0 -1
BITMAP
70
50
88
88
70
70
70
70
50
70
50
50
ENDCHAR
STARTCHAR atilde
ENCODING 227
SWIDTH 479 0
DWIDTH 5 0
BBX 5 11 0 -1
BITMAP
F8
50
88
70
70
70
70
50
70
50
50
ENDCHAR
STARTCHAR adieresis
ENCODING 228
SWIDTH 479 0
DWIDTH 5 0
BBX 5 11 0 -1
BITMAP
D8
D8
88
70
70
70
70
50
70
50
50
ENDCHAR
STARTCHAR aring
ENCODING 229
SWIDTH 479 0
DWIDTH 5 0
BBX 5 12 0 -1
BITMAP
20
50
60
88
70
70
70
70
50
70
50
50
ENDCHAR
STARTCHAR ae
ENCODING 230
SWIDTH 755 0
DWIDTH 8 0
BBX 7 8 0 -1
BITMAP
FE
7E
7C
70
5C
74
5C
54
ENDCHAR
STARTCHAR ccedilla
ENCODING 231
SWIDTH 534 0
DWIDTH 5 0
BBX 5 11 0 -4
BITMAP
78
F8
F8
78
40
78
70
30
10
10
10
ENDCHAR
STARTCHAR egrave
ENCODING 232
SWIDTH 632 0
DWIDTH 6 0
BBX 6 11 0 -1
BITMAP
40
F0
00
FC
78
78
60
78
28
38
28
ENDCHAR
STARTCHAR eacute
ENCODING 233
SWIDTH 632 0
DWIDTH 6 0
BBX 7 11 0 -1
BITMAP
04
1E
00
FC
78
78
60
78
28
38
28
ENDCHAR
STARTCHAR ecircumflex
ENCODING 234
SWIDTH 632 0
DWIDTH 6 0
BBX 6 12 0 -1
BITMAP
30
78
48
00
FC
78
78
60
78
28
38
28
ENDCHAR
STARTCHAR edieresis
ENCODING 235
SWIDTH 632 0
DWIDTH 6 0
BBX 6 11 0 -1
BITMAP
7C
6C
00
FC
78
78
60
78
28
38
28
ENDCHAR
STARTCHAR igrave
ENCODING 236
SWIDTH 411 0
DWIDTH 4 0
BBX 5 10 -1 0
BITMAP
40
E0
00
78
30
30
30
30
10
10
ENDCHAR
STARTCHAR iacute
ENCODING 237
SWIDTH 411 0
DWIDTH 4 0
BBX 5 10 0 0
BITMAP
08
38
00
F0
60
60
60
60
20
20
ENDCHAR
STARTCHAR icircumflex
ENCODING 238
SWIDTH 411 0
DWIDTH 4 0
BBX 5 11 0 0
BITMAP
70
D0
98
00
F0
60
60
60
60
20
20
ENDCHAR
STARTCHAR idieresis
ENCODING 239
SWIDTH 411 0
DWIDTH 4 0
BBX 5 10 0 0
BITMAP
F0
F8
00
F0
60
60
60
60
20
20
ENDCHAR
STARTCHAR eth
ENCODING 240
SWIDTH 530 0
DWIDTH 5 0
BBX 5 9 0 -2
BITMAP
78
78
78
68
B8
28
38
50
10
ENDCHAR
STARTCHAR ntilde
ENCODING 241
SWIDTH 664 0
DWIDTH 7 0
BBX 7 11 0 -1
BITMAP
7C
28
02
EC
7C
7C
78
78
78
78
78
ENDCHAR
STARTCHAR ograve
ENCODING 242
SWIDTH 545 0
DWIDTH 5 0
BBX 5 11 0 -1
BITMAP
C0
E0
00
78
F8
F8
58
58
58
70
10
ENDCHAR
STARTCHAR oacute
ENCODING 243
SWIDTH 545 0
DWIDTH 5 0
BBX 6 11 0 -1
BITMAP
08
1C
00
78
F8
F8
58
58
58
70
10
ENDCHAR
STARTCHAR ocircumflex
ENCODING 244
SWIDTH 545 0
DWIDTH 5 0
BBX 5 12 0 -1
BITMAP
70
50
88
00
78
F8
F8
58
58
58
70
10
ENDCHAR
STARTCHAR otilde
ENCODING 245
SWIDTH 545 0
DWIDTH 5 0
BBX 5 11 0 -1
BITMAP
F8
50
00
78
F8
F8
58
58
58
70
10
ENDCHAR
STARTCHAR odieresis
ENCODING 246
SWIDTH 545 0
DWIDTH 5 0
BBX 5 11 0 -1
BITMAP
D8
D8
00
78
F8
F8
58
58
58
70
10
ENDCHAR
STARTCHAR oslash
ENCODING 248
SWIDTH 676 0
DWIDTH 7 0
BBX 7 8 0 -1
BITMAP
7E
F8
78
58
78
58
F0
10
ENDCHAR
STARTCHAR ugrave
ENCODING 249
SWIDTH 708 0
DWIDTH 7 0
BBX 7 10 0 0
BITMAP
40
70
00
EE
6C
6C
6C
6C
2C
38
ENDCHAR
STARTCHAR uacute
ENCODING 250
SWIDTH 708 0
DWIDTH 7 0
BBX 7 10 0 0
BITMAP
04
0E
00
EE
6C
6C
6C
6C
2C
38
ENDCHAR
STARTCHAR ucircumflex
ENCODING 251
SWIDTH 708 0
DWIDTH 7 0
BBX 7 11 0 0
BITMAP
38
28
44
00
EE
6C
6C
6C
6C
2C
38
ENDCHAR
STARTCHAR udieresis
ENCODING 252
SWIDTH 708 0
DWIDTH 7 0
BBX 7 10 0 0
BITMAP
6C
6C
00
EE
6C
6C
6C
6C
2C
38
ENDCHAR
STARTCHAR yacute
ENCODING 253
SWIDTH 604 0
DWIDTH 6 0
BBX 6 11 0 -1
BITMAP
04
1C
80
6C
38
30
30
10
10
10
20
ENDCHAR
STARTCHAR thorn
ENCODING 254
SWIDTH 498 0
DWIDTH 5 0
BBX 5 10 0 -1
BITMAP
E0
C0
F8
78
78
78
70
60
60
60
ENDCHAR
STARTCHAR ydieresis
ENCODING 255
SWIDTH 604 0
DWIDTH 6 0
BBX 6 11 0 -1
BITMAP
6C
6C
80
6C
38
30
30
10
10
10
20
ENDCHAR
STARTCHAR Amacron
ENCODING 256
SWIDTH 494 0
DWIDTH 5 0
BBX 5 11 0 -2
BITMAP
70
00
F8
70
70
70
50
70
70
60
20
ENDCHAR
STARTCHAR amacron
ENCODING 257
SWIDTH 479 0
DWIDTH 5 0
BBX 5 10 0 -1
BITMAP
70
88
70
70
70
70
50
70
50
50
ENDCHAR
STARTCHAR Abreve
ENCODING 258
SWIDTH 494 0
DWIDTH 5 0
BBX 5 13 0 -2
BITMAP
48
70
10
00
F8
70
70
70
50
70
70
60
20
ENDCHAR
STARTCHAR abreve
ENCODING 259
SWIDTH 479 0
DWIDTH 5 0
BBX 5 12 0 -1
BITMAP
48
70
10
88
70
70
70
70
50
70
50
50
ENDCHAR
STARTCHAR Aogonek
ENCODING 260
SWIDTH 494 0
DWIDTH 5 0
BBX 5 11 0 -4
BITMAP
F8
70
70
70
50
70
70
60
20
20
38
ENDCHAR
STARTCHAR aogonek
ENCODING 261
SWIDTH 479 0
DWIDTH 5 0
BBX 5 11 0 -4
BITMAP
F8
70
70
70
50
70
50
50
10
18
08
ENDCHAR
STARTCHAR Cacute
ENCODING 262
SWIDTH 504 0
DWIDTH 5 0
BBX 5 11 0 -1
BITMAP
08
38
00
70
F8
F8
D8
40
50
70
20
ENDCHAR
STARTCHAR cacute
ENCODING 263
SWIDTH 534 0
DWIDTH 5 0
BBX 6 11 0 -1
BITMAP
08
3C
00
78
F8
F8
78
40
78
70
30
ENDCHAR
STARTCHAR Ccircumflex
ENCODING 264
SWIDTH 504 0
DWIDTH 5 0
BBX 5 12 0 -1
BITMAP
70
58
88
00
70
F8
F8
D8
40
50
70
20
ENDCHAR
STARTCHAR ccircumflex
ENCODING 265
SWIDTH 534 0
DWIDTH 5 0
BBX 5 12 0 -1
BITMAP
30
78
48
00
78
F8
F8
78
40
78
70
30
ENDCHAR
STARTCHAR Cdotaccent
ENCODING 266
SWIDTH 504 0
DWIDTH 5 0
BBX 5 12 0 -1
BITMAP
70
70
30
00
70
F8
F8
D8
40
50
70
20
ENDCHAR
STARTCHAR cdotaccent
ENCODING 267
SWIDTH 534 0
DWIDTH 5 0
BBX 5 12 0 -1
BITMAP
70
30
30
00
78
F8
F8
78
40
78
70
30
ENDCHAR
STARTCHAR Ccaron
ENCODING 268
SWIDTH 504 0
DWIDTH 5 0
BBX 5 13 0 -1
BITMAP
50
D8
70
70
00
70
F8
F8
D8
40
50
70
20
ENDCHAR
STARTCHAR ccaron
ENCODING 269
SWIDTH 534 0
DWIDTH 5 0
BBX 5 13 0 -1
BITMAP
48
58
70
30
00
78
F8
F8
78
40
78
70
30
ENDCHAR
STARTCHAR Dcaron
ENCODING 270
SWIDTH 522 0
DWIDTH 5 0
BBX 5 14 0 -2
BITMAP
48
48
78
30
00
F8
78
78
68
68
70
70
60
20
ENDCHAR
STARTCHAR dcaron
ENCODING 271
SWIDTH 522 0
DWIDTH 5 0
BBX 5 14 0 -2
BITMAP
48
48
78
30
00
F8
78
78
68
68
70
70
60
20
ENDCHAR
STARTCHAR Eth.dup2
ENCODING 272
SWIDTH 530 0
DWIDTH 5 0
BBX 5 9 0 -2
BITMAP
78
78
78
68
B8
28
38
50
10
ENDCHAR
STARTCHAR Emacron
ENCODING 274
SWIDTH 570 0
DWIDTH 6 0
BBX 5 10 0 -1
BITMAP
78
00
F8
78
70
60
70
60
70
30
ENDCHAR
STARTCHAR emacron
ENCODING 275
SWIDTH 632 0
DWIDTH 6 0
BBX 6 10 0 -1
BITMAP
78
00
FC
78
78
60
78
28
38
28
ENDCHAR
STARTCHAR Ebreve
ENCODING 276
SWIDTH 570 0
DWIDTH 6 0
BBX 5 12 0 -1
BITMAP
68
38
08
00
F8
78
70
60
70
60
70
30
ENDCHAR
STARTCHAR ebreve
ENCODING 277
SWIDTH 632 0
DWIDTH 6 0
BBX 6 12 0 -1
BITMAP
2C
38
08
00
FC
78
78
60
78
28
38
28
ENDCHAR
STARTCHAR Edotaccent
ENCODING 278
SWIDTH 570 0
DWIDTH 6 0
BBX 5 12 0 -1
BITMAP
70
30
30
00
F8
78
70
60
70
60
70
30
ENDCHAR
STARTCHAR edotaccent
ENCODING 279
SWIDTH 632 0
DWIDTH 6 0
BBX 6 12 0 -1
BITMAP
70
30
30
00
FC
78
78
60
78
28
38
28
ENDCHAR
STARTCHAR Eogonek
ENCODING 280
SWIDTH 513 0
DWIDTH 5 0
BBX 5 10 0 -3
BITMAP
F8
78
70
60
70
60
70
10
30
18
ENDCHAR
STARTCHAR eogonek
ENCODING 281
SWIDTH 632 0
DWIDTH 6 0
BBX 6 10 0 -3
BITMAP
FC
78
78
60
78
28
38
30
10
1C
ENDCHAR
STARTCHAR Ecaron
ENCODING 282
SWIDTH 570 0
DWIDTH 6 0
BBX 5 13 0 -1
BITMAP
48
48
78
30
00
F8
78
70
60
70
60
70
30
ENDCHAR
STARTCHAR ecaron
ENCODING 283
SWIDTH 632 0
DWIDTH 6 0
BBX 6 13 0 -1
BITMAP
28
6C
38
38
00
FC
78
78
60
78
28
38
28
ENDCHAR
STARTCHAR Gcircumflex
ENCODING 284
SWIDTH 499 0
DWIDTH 5 0
BBX 5 12 0 -1
BITMAP
70
50
88
00
70
F8
F8
58
50
58
70
50
ENDCHAR
STARTCHAR gcircumflex
ENCODING 285
SWIDTH 546 0
DWIDTH 5 0
BBX 5 12 0 -1
BITMAP
70
50
88
00
78
F8
F8
58
50
58
78
30
ENDCHAR
STARTCHAR Gbreve
ENCODING 286
SWIDTH 499 0
DWIDTH 5 0
BBX 5 12 0 -1
BITMAP
58
70
10
00
70
F8
F8
58
50
58
70
50
ENDCHAR
STARTCHAR gbreve
ENCODING 287
SWIDTH 546 0
DWIDTH 5 0
BBX 5 12 0 -1
BITMAP
48
70
10
00
78
F8
F8
58
50
58
78
30
ENDCHAR
STARTCHAR Gdotaccent
ENCODING 288
SWIDTH 499 0
DWIDTH 5 0
BBX 5 12 0 -1
BITMAP
70
70
70
00
70
F8
F8
58
50
58
70
50
ENDCHAR
STARTCHAR gdotaccent
ENCODING 289
SWIDTH 546 0
DWIDTH 5 0
BBX 5 12 0 -1
BITMAP
70
70
30
00
78
F8
F8
58
50
58
78
30
ENDCHAR
STARTCHAR Gcommaaccent
ENCODING 290
SWIDTH 499 0
DWIDTH 5 0
BBX 5 13 0 -6
BITMAP
70
F8
F8
58
50
58
70
50
00
30
30
10
10
ENDCHAR
STARTCHAR Hcircumflex
ENCODING 292
SWIDTH 726 0
DWIDTH 7 0
BBX 7 13 0 -2
BITMAP
38
28
44
00
EE
6C
6C
6C
7C
28
28
48
10
ENDCHAR
STARTCHAR hcircumflex
ENCODING 293
SWIDTH 730 0
DWIDTH 7 0
BBX 7 12 0 -1
BITMAP
38
28
44
00
EE
6C
6C
6C
3C
28
28
48
ENDCHAR
STARTCHAR hbar
ENCODING 295
SWIDTH 704 0
DWIDTH 7 0
BBX 7 8 0 -1
BITMAP
EE
7C
7C
6C
38
2C
28
48
ENDCHAR
STARTCHAR Itilde
ENCODING 296
SWIDTH 401 0
DWIDTH 4 0
BBX 5 11 -1 -1
BITMAP
F8
70
40
38
30
30
30
30
30
10
10
ENDCHAR
STARTCHAR itilde
ENCODING 297
SWIDTH 411 0
DWIDTH 4 0
BBX 4 10 0 0
BITMAP
F0
E0
00
F0
60
60
60
60
20
20
ENDCHAR
STARTCHAR Imacron
ENCODING 298
SWIDTH 401 0
DWIDTH 4 0
BBX 4 10 0 -1
BITMAP
F0
80
70
60
60
60
60
60
20
20
ENDCHAR
STARTCHAR imacron
ENCODING 299
SWIDTH 411 0
DWIDTH 4 0
BBX 4 9 0 0
BITMAP
F0
00
F0
60
60
60
60
20
20
ENDCHAR
STARTCHAR Ibreve
ENCODING 300
SWIDTH 401 0
DWIDTH 4 0
BBX 4 12 0 -1
BITMAP
D0
70
20
80
70
60
60
60
60
60
20
20
ENDCHAR
STARTCHAR ibreve
ENCODING 301
SWIDTH 411 0
DWIDTH 4 0
BBX 4 11 0 0
BITMAP
D0
70
20
00
F0
60
60
60
60
20
20
ENDCHAR
STARTCHAR Iogonek
ENCODING 302
SWIDTH 401 0
DWIDTH 4 0
BBX 4 11 0 -4
BITMAP
F0
60
60
60
60
60
20
40
40
60
30
ENDCHAR
STARTCHAR iogonek
ENCODING 303
SWIDTH 412 0
DWIDTH 4 0
BBX 4 11 0 -4
BITMAP
F0
60
60
60
60
20
20
40
40
70
30
ENDCHAR
STARTCHAR Idotaccent
ENCODING 304
SWIDTH 401 0
DWIDTH 4 0
BBX 4 12 0 -1
BITMAP
E0
60
60
80
70
60
60
60
60
60
20
20
ENDCHAR
STARTCHAR dotlessi
ENCODING 305
SWIDTH 411 0
DWIDTH 4 0
BBX 4 7 0 0
BITMAP
F0
60
60
60
60
20
20
ENDCHAR
STARTCHAR IJ
ENCODING 306
SWIDTH 908 0
DWIDTH 9 0
BBX 9 8 0 -1
BITMAP
F380
6100
6300
6300
6700
6F00
2600
2000
ENDCHAR
STARTCHAR ij
ENCODING 307
SWIDTH 901 0
DWIDTH 9 0
BBX 9 7 0 0
BITMAP
F380
6300
6300
6300
6700
2F00
2700
ENDCHAR
STARTCHAR Jcircumflex
ENCODING 308
SWIDTH 455 0
DWIDTH 5 0
BBX 5 11 0 0
BITMAP
70
58
48
00
30
30
30
20
60
A0
E0
ENDCHAR
STARTCHAR jcircumflex
ENCODING 309
SWIDTH 458 0
DWIDTH 5 0
BBX 5 11 0 0
BITMAP
70
58
48
00
70
30
30
30
70
A0
E0
ENDCHAR
STARTCHAR Kcommaaccent
ENCODING 310
SWIDTH 580 0
DWIDTH 6 0
BBX 6 13 0 -6
BITMAP
FC
70
70
70
30
30
38
08
00
30
30
10
10
ENDCHAR
STARTCHAR kcommaaccent
ENCODING 311
SWIDTH 636 0
DWIDTH 6 0
BBX 6 13 0 -6
BITMAP
EC
78
70
30
30
30
28
00
00
38
38
08
10
ENDCHAR
STARTCHAR kgreenlandic
ENCODING 312
SWIDTH 636 0
DWIDTH 6 0
BBX 6 7 0 0
BITMAP
EC
78
70
30
30
30
28
ENDCHAR
STARTCHAR Lacute
ENCODING 313
SWIDTH 416 0
DWIDTH 4 0
BBX 5 11 0 -1
BITMAP
08
38
90
60
60
60
60
60
68
70
30
ENDCHAR
STARTCHAR lacute
ENCODING 314
SWIDTH 438 0
DWIDTH 4 0
BBX 6 11 0 -1
BITMAP
08
3C
10
E0
60
60
60
60
28
30
50
ENDCHAR
STARTCHAR Lcommaaccent
ENCODING 315
SWIDTH 416 0
DWIDTH 4 0
BBX 5 13 0 -6
BITMAP
F0
60
60
60
60
68
70
30
00
70
70
20
20
ENDCHAR
STARTCHAR lcommaaccent
ENCODING 316
SWIDTH 438 0
DWIDTH 4 0
BBX 5 13 0 -6
BITMAP
F0
60
60
60
60
28
30
50
00
70
70
10
20
ENDCHAR
STARTCHAR Lcaron
ENCODING 317
SWIDTH 714 0
DWIDTH 7 0
BBX 7 8 0 -1
BITMAP
FE
6E
6E
62
64
68
70
30
ENDCHAR
STARTCHAR lcaron
ENCODING 318
SWIDTH 782 0
DWIDTH 8 0
BBX 7 8 0 -1
BITMAP
F6
66
66
62
60
28
30
50
ENDCHAR
STARTCHAR Ldotaccent
ENCODING 319
SWIDTH 567 0
DWIDTH 6 0
BBX 6 8 0 -1
BITMAP
F0
7C
6C
6C
60
68
70
30
ENDCHAR
STARTCHAR ldot
ENCODING 320
SWIDTH 660 0
DWIDTH 7 0
BBX 7 8 0 -1
BITMAP
F0
60
6E
6E
6E
28
30
50
ENDCHAR
STARTCHAR Lslash
ENCODING 321
SWIDTH 428 0
DWIDTH 4 0
BBX 5 8 0 -1
BITMAP
F0
68
70
F8
60
60
70
30
ENDCHAR
STARTCHAR lslash
ENCODING 322
SWIDTH 457 0
DWIDTH 5 0
BBX 5 8 0 -1
BITMAP
F0
68
78
F0
60
20
38
50
ENDCHAR
STARTCHAR Nacute
ENCODING 323
SWIDTH 610 0
DWIDTH 6 0
BBX 7 12 0 -2
BITMAP
04
0E
10
EC
68
78
78
78
78
38
50
70
ENDCHAR
STARTCHAR nacute
ENCODING 324
SWIDTH 664 0
DWIDTH 7 0
BBX 7 11 0 -1
BITMAP
04
0E
02
EC
7C
7C
78
78
78
78
78
ENDCHAR
STARTCHAR Ncommaaccent
ENCODING 325
SWIDTH 610 0
DWIDTH 6 0
BBX 6 14 0 -7
BITMAP
FC
68
78
78
78
78
38
50
70
00
38
38
08
10
ENDCHAR
STARTCHAR ncommaaccent
ENCODING 326
SWIDTH 664 0
DWIDTH 7 0
BBX 7 13 0 -6
BITMAP
EE
7C
7C
78
78
78
78
78
00
18
18
08
08
ENDCHAR
STARTCHAR Ncaron
ENCODING 327
SWIDTH 610 0
DWIDTH 6 0
BBX 6 14 0 -2
BITMAP
48
68
38
30
10
EC
68
78
78
78
78
38
50
70
ENDCHAR
STARTCHAR ncaron
ENCODING 328
SWIDTH 664 0
DWIDTH 7 0
BBX 7 13 0 -1
BITMAP
28
6C
38
38
02
EC
7C
7C
78
78
78
78
78
ENDCHAR
STARTCHAR Omacron
ENCODING 332
SWIDTH 504 0
DWIDTH 5 0
BBX 5 10 0 -1
BITMAP
70
00
78
F8
F8
58
58
50
70
30
ENDCHAR
STARTCHAR omacron
ENCODING 333
SWIDTH 545 0
DWIDTH 5 0
BBX 5 10 0 -1
BITMAP
70
00
78
F8
F8
58
58
58
70
10
ENDCHAR
STARTCHAR Obreve
ENCODING 334
SWIDTH 504 0
DWIDTH 5 0
BBX 5 12 0 -1
BITMAP
58
70
10
00
78
F8
F8
58
58
50
70
30
ENDCHAR
STARTCHAR obreve
ENCODING 335
SWIDTH 545 0
DWIDTH 5 0
BBX 5 12 0 -1
BITMAP
58
70
10
00
78
F8
F8
58
58
58
70
10
ENDCHAR
STARTCHAR Ohungarumlaut
ENCODING 336
SWIDTH 504 0
DWIDTH 5 0
BBX 5 12 0 -1
BITMAP
78
50
A0
00
78
F8
F8
58
58
50
70
30
ENDCHAR
STARTCHAR ohungarumlaut
ENCODING 337
SWIDTH 545 0
DWIDTH 5 0
BBX 5 12 0 -1
BITMAP
68
50
90
00
78
F8
F8
58
58
58
70
10
ENDCHAR
STARTCHAR OE
ENCODING 338
SWIDTH 789 0
DWIDTH 8 0
BBX 8 9 0 -2
BITMAP
7F
FE
FE
58
5C
58
7C
2C
08
ENDCHAR
STARTCHAR oe
ENCODING 339
SWIDTH 778 0
DWIDTH 8 0
BBX 7 8 0 -1
BITMAP
7E
FE
FE
58
5C
5C
7C
14
ENDCHAR
STARTCHAR Racute
ENCODING 340
SWIDTH 599 0
DWIDTH 6 0
BBX 6 11 0 -1
BITMAP
04
1C
00
F8
7C
7C
6C
38
28
28
28
ENDCHAR
STARTCHAR racute
ENCODING 341
SWIDTH 616 0
DWIDTH 6 0
BBX 7 11 0 -1
BITMAP
04
1E
00
FC
7C
7C
6C
38
38
28
48
ENDCHAR
STARTCHAR Rcommaaccent
ENCODING 342
SWIDTH 599 0
DWIDTH 6 0
BBX 6 13 0 -6
BITMAP
F8
7C
7C
6C
38
28
28
28
00
38
30
10
10
ENDCHAR
STARTCHAR rcommaaccent
ENCODING 343
SWIDTH 616 0
DWIDTH 6 0
BBX 6 13 0 -6
BITMAP
FC
7C
7C
6C
38
38
28
48
00
38
38
08
10
ENDCHAR
STARTCHAR Rcaron
ENCODING 344
SWIDTH 599 0
DWIDTH 6 0
BBX 6 13 0 -1
BITMAP
48
6C
38
30
00
F8
7C
7C
6C
38
28
28
28
ENDCHAR
STARTCHAR rcaron
ENCODING 345
SWIDTH 616 0
DWIDTH 6 0
BBX 6 13 0 -1
BITMAP
48
6C
38
30
00
FC
7C
7C
6C
38
38
28
48
ENDCHAR
STARTCHAR Sacute
ENCODING 346
SWIDTH 504 0
DWIDTH 5 0
BBX 6 11 0 -1
BITMAP
08
1C
00
78
F8
F8
C8
70
D0
70
20
ENDCHAR
STARTCHAR sacute
ENCODING 347
SWIDTH 481 0
DWIDTH 5 0
BBX 6 11 0 -1
BITMAP
08
3C
00
70
F8
F0
D0
70
30
70
40
ENDCHAR
STARTCHAR Scircumflex
ENCODING 348
SWIDTH 504 0
DWIDTH 5 0
BBX 5 12 0 -1
BITMAP
70
58
48
00
78
F8
F8
C8
70
D0
70
20
ENDCHAR
STARTCHAR scircumflex
ENCODING 349
SWIDTH 481 0
DWIDTH 5 0
BBX 5 12 0 -1
BITMAP
70
50
88
00
70
F8
F0
D0
70
30
70
40
ENDCHAR
STARTCHAR Scedilla
ENCODING 350
SWIDTH 504 0
DWIDTH 5 0
BBX 5 10 0 -3
BITMAP
78
F8
F8
C8
70
D0
70
20
30
30
ENDCHAR
STARTCHAR scedilla
ENCODING 351
SWIDTH 481 0
DWIDTH 5 0
BBX 5 10 0 -3
BITMAP
70
F8
F0
D0
70
30
70
20
30
30
ENDCHAR
STARTCHAR Scaron
ENCODING 352
SWIDTH 503 0
DWIDTH 5 0
BBX 5 14 0 -1
BITMAP
48
D8
70
70
00
00
78
F8
F8
C8
70
D0
70
20
ENDCHAR
STARTCHAR scaron
ENCODING 353
SWIDTH 479 0
DWIDTH 5 0
BBX 5 14 0 -1
BITMAP
90
D8
70
70
00
00
70
F8
F0
D0
70
30
70
40
ENDCHAR
STARTCHAR Tcommaaccent
ENCODING 354
SWIDTH 622 0
DWIDTH 6 0
BBX 6 11 0 -4
BITMAP
FC
78
78
30
10
30
10
10
10
10
10
ENDCHAR
STARTCHAR tcommaaccent
ENCODING 355
SWIDTH 683 0
DWIDTH 7 0
BBX 6 11 0 -4
BITMAP
FC
7C
7C
50
18
10
18
10
10
18
18
ENDCHAR
STARTCHAR Tcaron
ENCODING 356
SWIDTH 622 0
DWIDTH 6 0
BBX 6 13 0 -1
BITMAP
48
68
38
30
00
FC
78
78
30
10
30
10
10
ENDCHAR
STARTCHAR tcaron
ENCODING 357
SWIDTH 622 0
DWIDTH 6 0
BBX 6 13 0 -1
BITMAP
48
6C
38
30
00
FC
78
78
30
10
30
10
10
ENDCHAR
STARTCHAR Utilde
ENCODING 360
SWIDTH 637 0
DWIDTH 6 0
BBX 6 11 0 -1
BITMAP
78
28
80
6C
68
68
68
78
78
78
10
ENDCHAR
STARTCHAR utilde
ENCODING 361
SWIDTH 708 0
DWIDTH 7 0
BBX 7 10 0 0
BITMAP
7C
28
00
EE
6C
6C
6C
6C
2C
38
ENDCHAR
STARTCHAR Umacron
ENCODING 362
SWIDTH 637 0
DWIDTH 6 0
BBX 6 10 0 -1
BITMAP
78
80
6C
68
68
68
78
78
78
10
ENDCHAR
STARTCHAR umacron
ENCODING 363
SWIDTH 708 0
DWIDTH 7 0
BBX 7 9 0 0
BITMAP
38
00
EE
6C
6C
6C
6C
2C
38
ENDCHAR
STARTCHAR Ubreve
ENCODING 364
SWIDTH 637 0
DWIDTH 6 0
BBX 6 12 0 -1
BITMAP
28
38
08
80
6C
68
68
68
78
78
78
10
ENDCHAR
STARTCHAR ubreve
ENCODING 365
SWIDTH 708 0
DWIDTH 7 0
BBX 7 11 0 0
BITMAP
24
38
08
00
EE
6C
6C
6C
6C
2C
38
ENDCHAR
STARTCHAR Uring
ENCODING 366
SWIDTH 637 0
DWIDTH 6 0
BBX 6 12 0 -1
BITMAP
30
28
30
80
6C
68
68
68
78
78
78
10
ENDCHAR
STARTCHAR uring
ENCODING 367
SWIDTH 708 0
DWIDTH 7 0
BBX 7 11 0 0
BITMAP
18
28
18
00
EE
6C
6C
6C
6C
2C
38
ENDCHAR
STARTCHAR Uhungarumlaut
ENCODING 368
SWIDTH 637 0
DWIDTH 6 0
BBX 6 12 0 -1
BITMAP
3C
68
50
80
6C
68
68
68
78
78
78
10
ENDCHAR
STARTCHAR uhungarumlaut
ENCODING 369
SWIDTH 708 0
DWIDTH 7 0
BBX 7 11 0 0
BITMAP
3C
28
48
00
EE
6C
6C
6C
6C
2C
38
ENDCHAR
STARTCHAR Uogonek
ENCODING 370
SWIDTH 637 0
DWIDTH 6 0
BBX 6 10 0 -3
BITMAP
EC
68
68
68
78
78
78
10
14
18
ENDCHAR
STARTCHAR uogonek
ENCODING 371
SWIDTH 662 0
DWIDTH 7 0
BBX 7 10 0 -3
BITMAP
EE
6C
6C
6C
6C
2C
38
10
10
18
ENDCHAR
STARTCHAR Wcircumflex
ENCODING 372
SWIDTH 777 0
DWIDTH 8 0
BBX 8 11 0 0
BITMAP
38
2C
24
14
FF
7C
3C
3C
3C
18
18
ENDCHAR
STARTCHAR wcircumflex
ENCODING 373
SWIDTH 704 0
DWIDTH 7 0
BBX 7 11 0 0
BITMAP
38
28
44
00
D6
74
7C
3C
38
38
18
ENDCHAR
STARTCHAR Ycircumflex
ENCODING 374
SWIDTH 688 0
DWIDTH 7 0
BBX 7 11 0 0
BITMAP
38
28
44
00
EE
3C
18
18
18
18
08
ENDCHAR
STARTCHAR ycircumflex
ENCODING 375
SWIDTH 604 0
DWIDTH 6 0
BBX 6 12 0 -1
BITMAP
30
78
48
80
6C
38
30
30
10
10
10
20
ENDCHAR
STARTCHAR Ydieresis
ENCODING 376
SWIDTH 688 0
DWIDTH 7 0
BBX 7 10 0 0
BITMAP
6C
6C
00
EE
3C
18
18
18
18
08
ENDCHAR
STARTCHAR Zacute
ENCODING 377
SWIDTH 695 0
DWIDTH 7 0
BBX 7 10 0 0
BITMAP
04
0E
00
FE
7C
7C
58
30
20
38
ENDCHAR
STARTCHAR zacute
ENCODING 378
SWIDTH 622 0
DWIDTH 6 0
BBX 7 11 0 -1
BITMAP
04
1E
00
FC
78
78
50
30
20
38
08
ENDCHAR
STARTCHAR Zdotaccent
ENCODING 379
SWIDTH 695 0
DWIDTH 7 0
BBX 7 11 0 0
BITMAP
38
38
38
00
FE
7C
7C
58
30
20
38
ENDCHAR
STARTCHAR zdotaccent
ENCODING 380
SWIDTH 622 0
DWIDTH 6 0
BBX 6 12 0 -1
BITMAP
70
30
30
00
FC
78
78
50
30
20
38
08
ENDCHAR
STARTCHAR Zcaron
ENCODING 381
SWIDTH 693 0
DWIDTH 7 0
BBX 7 13 0 0
BITMAP
64
2C
38
18
00
00
FE
7C
7C
58
30
20
38
ENDCHAR
STARTCHAR zcaron
ENCODING 382
SWIDTH 621 0
DWIDTH 6 0
BBX 6 14 0 -1
BITMAP
48
68
38
30
00
00
FC
78
78
50
30
20
38
08
ENDCHAR
STARTCHAR DZ
ENCODING 497
SWIDTH 194 0
DWIDTH 2 0
BBX 1 1 0 0
BITMAP
00
ENDCHAR
STARTCHAR Dz
ENCODING 498
SWIDTH 194 0
DWIDTH 2 0
BBX 1 1 0 0
BITMAP
00
ENDCHAR
STARTCHAR dotlessj
ENCODING 567
SWIDTH 458 0
DWIDTH 5 0
BBX 4 7 0 0
BITMAP
70
30
30
30
70
A0
E0
ENDCHAR
STARTCHAR circumflex
ENCODING 710
SWIDTH 528 0
DWIDTH 5 0
BBX 5 3 0 7
BITMAP
70
50
88
ENDCHAR
STARTCHAR caron
ENCODING 711
SWIDTH 486 0
DWIDTH 5 0
BBX 5 4 0 7
BITMAP
90
D8
70
60
ENDCHAR
STARTCHAR breve
ENCODING 728
SWIDTH 464 0
DWIDTH 5 0
BBX 4 3 0 -1
BITMAP
D0
70
10
ENDCHAR
STARTCHAR dotaccent
ENCODING 729
SWIDTH 388 0
DWIDTH 4 0
BBX 3 3 0 2
BITMAP
E0
60
60
ENDCHAR
STARTCHAR ring
ENCODING 730
SWIDTH 370 0
DWIDTH 4 0
BBX 3 3 0 3
BITMAP
60
A0
60
ENDCHAR
STARTCHAR ogonek
ENCODING 731
SWIDTH 360 0
DWIDTH 4 0
BBX 2 3 1 0
BITMAP
80
80
C0
ENDCHAR
STARTCHAR tilde
ENCODING 732
SWIDTH 535 0
DWIDTH 5 0
BBX 5 2 0 -1
BITMAP
F8
70
ENDCHAR
STARTCHAR hungarumlaut
ENCODING 733
SWIDTH 554 0
DWIDTH 6 0
BBX 5 3 0 7
BITMAP
78
50
90
ENDCHAR
STARTCHAR dotaccentcmb
ENCODING 775
SWIDTH 396 0
DWIDTH 4 0
BBX 3 3 0 4
BITMAP
E0
60
60
ENDCHAR
STARTCHAR uni030F
ENCODING 783
SWIDTH 549 0
DWIDTH 6 0
BBX 5 3 0 7
BITMAP
D0
58
28
ENDCHAR
STARTCHAR uni0311
ENCODING 785
SWIDTH 490 0
DWIDTH 5 0
BBX 4 2 0 4
BITMAP
70
D0
ENDCHAR
STARTCHAR uni0326
ENCODING 806
SWIDTH 360 0
DWIDTH 4 0
BBX 2 4 1 -1
BITMAP
C0
C0
40
40
ENDCHAR
STARTCHAR endash
ENCODING 8211
SWIDTH 478 0
DWIDTH 5 0
BBX 3 2 1 3
BITMAP
E0
E0
ENDCHAR
STARTCHAR emdash
ENCODING 8212
SWIDTH 567 0
DWIDTH 6 0
BBX 4 2 1 3
BITMAP
F0
F0
ENDCHAR
STARTCHAR quoteleft
ENCODING 8216
SWIDTH 373 0
DWIDTH 4 0
BBX 2 5 1 2
BITMAP
80
80
C0
C0
C0
ENDCHAR
STARTCHAR quoteright
ENCODING 8217
SWIDTH 369 0
DWIDTH 4 0
BBX 3 5 0 2
BITMAP
60
E0
E0
20
20
ENDCHAR
STARTCHAR quotesinglbase
ENCODING 8218
SWIDTH 369 0
DWIDTH 4 0
BBX 3 5 0 2
BITMAP
60
E0
E0
20
20
ENDCHAR
STARTCHAR quotedblleft
ENCODING 8220
SWIDTH 687 0
DWIDTH 7 0
BBX 5 5 1 2
BITMAP
90
90
D8
D8
E8
ENDCHAR
STARTCHAR quotedblright
ENCODING 8221
SWIDTH 677 0
DWIDTH 7 0
BBX 6 5 0 2
BITMAP
6C
EC
EC
24
24
ENDCHAR
STARTCHAR quotedblbase
ENCODING 8222
SWIDTH 697 0
DWIDTH 7 0
BBX 6 5 0 -3
BITMAP
6C
6C
EC
24
24
ENDCHAR
STARTCHAR ellipsis
ENCODING 8230
SWIDTH 1462 0
DWIDTH 15 0
BBX 14 4 0 0
BITMAP
A194
630C
638C
C218
ENDCHAR
STARTCHAR guilsinglleft
ENCODING 8249
SWIDTH 459 0
DWIDTH 5 0
BBX 4 5 0 1
BITMAP
30
60
C0
60
30
ENDCHAR
STARTCHAR guilsinglright
ENCODING 8250
SWIDTH 432 0
DWIDTH 4 0
BBX 4 5 0 1
BITMAP
E0
60
30
60
E0
ENDCHAR
STARTCHAR fraction
ENCODING 8260
SWIDTH 371 0
DWIDTH 4 0
BBX 4 7 0 0
BITMAP
F0
60
60
60
60
60
60
ENDCHAR
STARTCHAR Euro
ENCODING 8364
SWIDTH 587 0
DWIDTH 6 0
BBX 5 9 0 -2
BITMAP
78
78
78
68
E0
28
38
30
20
ENDCHAR
STARTCHAR trademark
ENCODING 8482
SWIDTH 785 0
DWIDTH 8 0
BBX 8 6 0 2
BITMAP
07
EE
6E
4E
4E
40
ENDCHAR
STARTCHAR minus
ENCODING 8722
SWIDTH 478 0
DWIDTH 5 0
BBX 3 2 1 3
BITMAP
E0
E0
ENDCHAR
STARTCHAR commaaccent
ENCODING 63171
SWIDTH 360 0
DWIDTH 4 0
BBX 3 4 0 -1
BITMAP
60
E0
60
20
ENDCHAR
STARTCHAR .notdef
ENCODING -1
SWIDTH 365 0
DWIDTH 4 0
BBX 3 7 0 0
BITMAP
E0
A0
A0
A0
A0
A0
E0
ENDCHAR
STARTCHAR .null
ENCODING -1
SWIDTH 0 0
DWIDTH 0 0
BBX 1 1 0 0
BITMAP
00
ENDCHAR
STARTCHAR nonmarkingreturn
ENCODING -1
SWIDTH 333 0
DWIDTH 3 0
BBX 1 1 0 0
BITMAP
00
ENDCHAR
ENDFONT
